<?xml version="1.0" encoding="UTF-8"?>
<svg id="Layer_2" data-name="Layer 2" xmlns="http://www.w3.org/2000/svg" viewBox="0 0 317.71 65.12">
  <defs>
    <style>
      .cls-1 {
        fill: #f76900;
      }

      .cls-2 {
        fill: #000e54;
      }
    </style>
  </defs>
  <g id="Artwork">
    <g>
      <path class="cls-1" d="M60.11,26.06l-1.31-6.18,1.67-.6c1.03,2.27,3.06,5.15,6.75,5.15,2.31,0,4.65-1.28,4.65-4.26,0-5.69-12.05-4.48-12.05-11.69,0-4.26,3.27-6.4,7.04-6.4,2.52,0,3.94,1.1,4.41,1.67l.43-1.14h1.42l1.42,5.58-1.67.6c-.99-2.17-3.06-4.55-6.04-4.55-2.59,0-3.8,1.53-3.8,3.45,0,5.15,12.05,3.84,12.05,11.65,0,5.26-4.48,7.25-8.03,7.25-2.06,0-3.7-.68-5.12-1.63l-.43,1.1s-1.39,0-1.39,0Z"/>
      <path class="cls-1" d="M81.18,33.88c-1.14.5-2.1,0-2.35-.85l3.59-6.96-5.4-12.01c-.43-.96-.64-1.21-2.1-1.56v-1.35h6.5v1.35l-1.74.43,4.09,9.13,4.02-9.17-1.67-.39v-1.35h5.44v1.35c-.89.21-1.56.53-2.03,1.53l-5.65,12.4-2.7,7.46h0Z"/>
      <path class="cls-1" d="M101.86,14.55c-.14-.53-.71-1.07-1.42-1.07-1.1,0-2.24.96-2.98,1.88v8.92l1.78.43v1.35h-6.04v-1.35l1.42-.36v-10.2l-1.78-.5v-1.24c1.74-.28,2.59-.85,3.38-2.03l1.24.21-.18,3.2c.82-1.42,2.17-3.2,4.3-3.2,1.03,0,2.13.64,2.13,1.95,0,1.24-.92,1.99-1.85,1.99"/>
      <path class="cls-1" d="M112.99,22.19v-2.59l-3.48.67c-.92.18-2.38.71-2.38,2.31,0,1.14.82,2.13,2.42,2.13,1.71,0,2.98-1.14,3.45-2.52M117.75,24.25l.36.67c-.11.25-1.1,1.56-2.74,1.56s-2.27-.92-2.31-1.85c-.82,1.24-2.42,1.95-4.34,1.95-2.98,0-4.33-1.95-4.33-3.55,0-2.49,1.56-3.87,4.33-4.37l4.26-.78v-3.2c0-1.28-.89-2.24-2.27-2.24s-2.03.57-2.59,1.21c.46,2.17-1.49,3.27-3.3,2.27.07-3.23,3.23-5.33,6.22-5.33,3.48,0,4.8,2.03,4.8,4.65v8.28c0,.57.36.99.89.99.5,0,.89-.18,1.03-.28"/>
      <path class="cls-1" d="M131.82,13.45c0,1.07-1.03,1.71-2.03,1.74-.57-1.42-1.53-2.38-3.41-2.38-2.66,0-4.76,2.24-4.76,6.04,0,3.16,2.03,5.22,4.76,5.22,2.06,0,3.55-.96,4.58-2.27l.75.46c-.53,2.31-2.66,4.34-6.43,4.34-3.52,0-6.64-2.45-6.64-7.04,0-5.65,4.55-8.95,8.71-8.95,2.13,0,4.48.89,4.48,2.84"/>
      <path class="cls-1" d="M134.91,12.92l-1.78-.43v-1.35h4.62v10.55c0,1.53.75,2.35,2.13,2.35,1.07,0,2.98-.46,4.8-2.06v-9.06l-1.78-.43v-1.35h4.62v12.33h1.78v1.35c-1.17.28-2.42.78-3.38,1.56l-1.24-.21.18-2.56c-1.78,1.71-3.8,2.98-6,2.98s-3.94-1.53-3.94-3.52v-10.16h0Z"/>
      <path class="cls-1" d="M152.32,26.06h-.89l-.71-4.34,1.07-.25c.85,1.78,2.59,3.41,4.8,3.41,1.95,0,2.74-1.31,2.74-2.27,0-3.3-8.07-2.74-8.07-7.75,0-2.35,2.03-4.26,4.62-4.26,1.49,0,2.7.5,3.34.99l.14-.46h1.1l.68,3.8-1.07.25c-.46-1.03-1.63-2.88-3.87-2.88-1.56,0-2.24.96-2.24,1.81,0,3.02,7.99,2.27,7.99,7.53,0,2.95-2.56,4.94-5.4,4.94-1.53,0-3.27-.85-3.87-1.63l-.36,1.1h0Z"/>
      <path class="cls-1" d="M166.75,17.32l6.93-.92c0-2.81-1.42-3.98-2.91-3.98-2.66,0-3.91,2.24-4.02,4.9M166.68,19.17c.14,2.74,1.95,4.9,4.44,4.9,2.17,0,3.66-.96,4.76-2.59l.75.46c-.6,2.74-2.91,4.65-6.36,4.65s-6.54-2.52-6.54-7.11c0-6.22,3.73-8.88,7.18-8.88,3.23,0,5.93,1.92,5.93,6.47l-.57.85-9.59,1.24h0Z"/>
      <path class="cls-1" d="M205.02,17.57c0,5.83-3.41,9.2-9.35,9.2s-9.35-3.38-9.35-9.2V4.57l-1.85-.39v-1.56h7.04v1.56l-1.85.39v12.54c0,4.51,1.88,7.25,6.64,7.25,3.8,0,6.29-2.59,6.29-7.04V4.56l-1.85-.39v-1.56h6.11v1.56l-1.85.39v13h.02Z"/>
      <path class="cls-1" d="M207.61,26.06v-1.35l1.42-.36v-10.2l-1.78-.5v-1.24c1.74-.28,2.59-.85,3.38-2.03l1.24.21-.18,2.98c1.78-1.71,3.8-2.98,6.01-2.98s3.94,1.53,3.94,3.52v10.16l1.78.43v1.35h-6.04v-1.35l1.42-.36v-8.85c0-1.53-.75-2.35-2.13-2.35-1.07,0-2.98.46-4.8,2.06v9.06l1.78.43v1.35h-6.04v.02Z"/>
      <path class="cls-1" d="M228.58,4.43c.99,0,1.78.78,1.78,1.78s-.78,1.78-1.78,1.78-1.78-.78-1.78-1.78.78-1.78,1.78-1.78M225.38,26.06v-1.35l1.6-.39v-10.16l-1.78-.5v-1.24c1.74-.28,2.59-.85,3.38-2.03l1.24.21v13.72l1.6.39v1.35h-6.04Z"/>
      <path class="cls-1" d="M231.81,11.14h6.5v1.35l-1.74.43,4.09,9.13,4.02-9.17-1.67-.39v-1.35h5.44v1.35c-.89.21-1.56.53-2.03,1.53l-5.65,12.4h-1.28l-5.58-12.37c-.46-.96-.64-1.21-2.1-1.56v-1.35Z"/>
      <path class="cls-1" d="M251.32,17.32l6.93-.92c0-2.81-1.42-3.98-2.91-3.98-2.66,0-3.91,2.24-4.02,4.9M251.25,19.17c.14,2.74,1.95,4.9,4.44,4.9,2.17,0,3.66-.96,4.76-2.59l.75.46c-.6,2.74-2.91,4.65-6.36,4.65s-6.54-2.52-6.54-7.11c0-6.22,3.73-8.88,7.18-8.88,3.23,0,5.93,1.92,5.93,6.47l-.57.85-9.59,1.24h0Z"/>
      <path class="cls-1" d="M271.82,14.55c-.14-.53-.71-1.07-1.42-1.07-1.1,0-2.24.96-2.98,1.88v8.92l1.78.43v1.35h-6.04v-1.35l1.42-.36v-10.2l-1.78-.5v-1.24c1.74-.28,2.59-.85,3.38-2.03l1.24.21-.18,3.2c.82-1.42,2.17-3.2,4.3-3.2,1.03,0,2.13.64,2.13,1.95,0,1.24-.92,1.99-1.85,1.99"/>
      <path class="cls-1" d="M275.94,26.06h-.89l-.71-4.34,1.07-.25c.85,1.78,2.59,3.41,4.8,3.41,1.95,0,2.74-1.31,2.74-2.27,0-3.3-8.07-2.74-8.07-7.75,0-2.35,2.03-4.26,4.62-4.26,1.49,0,2.7.5,3.34.99l.14-.46h1.1l.67,3.8-1.07.25c-.46-1.03-1.63-2.88-3.87-2.88-1.56,0-2.24.96-2.24,1.81,0,3.02,7.99,2.27,7.99,7.53,0,2.95-2.56,4.94-5.4,4.94-1.53,0-3.27-.85-3.87-1.63l-.36,1.1h0Z"/>
      <path class="cls-1" d="M290.55,4.43c.99,0,1.78.78,1.78,1.78s-.78,1.78-1.78,1.78-1.78-.78-1.78-1.78.78-1.78,1.78-1.78M287.35,26.06v-1.35l1.6-.39v-10.16l-1.78-.5v-1.24c1.74-.28,2.59-.85,3.38-2.03l1.24.21v13.72l1.6.39v1.35h-6.04Z"/>
      <path class="cls-1" d="M296.41,23.43v-10.52h-2.31v-1.35c1.95-.36,3.23-2.13,3.91-4.05l1.24.21v3.41h3.91v1.78h-3.91v9.91c0,1.1.5,1.71,1.42,1.71.68,0,1.31-.43,1.67-.85l.75.57c-.39,1.14-1.67,2.35-3.38,2.35-1.88,0-3.3-1.1-3.3-3.16"/>
      <path class="cls-1" d="M307.32,33.88c-1.14.5-2.1,0-2.35-.85l3.59-6.96-5.4-12.01c-.43-.96-1.28-1.14-2.27-1.14h-3.02v-1.78h9.7v1.35l-1.74.43,4.09,9.13,4.02-9.17-1.67-.39v-1.35h5.44v1.35c-.89.21-1.56.53-2.03,1.53l-5.65,12.4-2.7,7.46h-.01Z"/>
    </g>
    <g>
      <path class="cls-2" d="M59.08,58.29v-1.28l1.51-.32v-15.95l-1.51-.32v-1.28h13.58l.41,3.83-1.28.23c-.41-1.89-1.36-2.41-3.28-2.41h-5.19v6.7h5.92l.32-1.51h1.45v4.87h-1.45l-.32-1.8h-5.92v7.63l1.8.32v1.28h-6.04Z"/>
      <path class="cls-2" d="M84.12,56.81l.29.55c-.09.2-.9,1.28-2.23,1.28s-1.86-.75-1.89-1.51c-.67,1.02-1.97,1.6-3.54,1.6-2.44,0-3.54-1.6-3.54-2.9,0-2.03,1.28-3.16,3.54-3.57l3.48-.64v-2.61c0-1.04-.73-1.83-1.86-1.83s-1.65.46-2.12.99c.38,1.77-1.22,2.67-2.7,1.86.06-2.64,2.64-4.35,5.08-4.35,2.84,0,3.92,1.65,3.92,3.8v6.76c0,.46.29.81.73.81.41,0,.73-.15.84-.23h0ZM80.24,55.13v-2.12l-2.84.55c-.75.15-1.94.58-1.94,1.89,0,.93.67,1.74,1.97,1.74,1.39,0,2.44-.93,2.81-2.06Z"/>
      <path class="cls-2" d="M85.51,58.29v-1.1l1.31-.32v-14.97l-1.45-.41v-1.02c1.42-.23,2.12-.7,2.76-1.65l1.02.17v17.87l1.31.32v1.1h-4.95Z"/>
      <path class="cls-2" d="M91.88,58.29v-1.1l1.16-.29v-15l-1.45-.41v-1.02c1.42-.23,2.12-.7,2.76-1.65l1.02.17v12.82l4.61-4.21-1.57-.41v-1.1h4.93v1.1c-1.16.29-1.65.46-2.44,1.22l-2.52,2.35,4.03,5.34c.44.58,1.02,1.04,1.89,1.07v1.1h-3.28l-4.35-5.95-1.31,1.22v3.28l1.45.35v1.1h-4.93v.02Z"/>
      <path class="cls-2" d="M110.23,48.92c0-6.06,4.64-10.21,9.78-10.21,3.16,0,5.31,1.33,6.18,2.15l.32-.84h1.02l1.19,4.58-1.25.46c-.9-1.68-3.07-4.32-7.08-4.32-3.66,0-7.37,2.15-7.37,7.54s3.48,8.5,7.57,8.5c3.54,0,6.18-2.61,7.17-4.76l1.28.46-.84,3.86c-.29,0-.58.03-1.02.17-1.22.41-3.16,2.2-7.11,2.2-5.69,0-9.83-3.83-9.83-9.8h-.01Z"/>
      <path class="cls-2" d="M143.3,52.05c0,3.97-3.02,6.67-6.38,6.67s-6.09-2.47-6.09-6.38,3.02-6.67,6.38-6.67,6.09,2.47,6.09,6.38ZM140.86,52.58c0-3.42-1.83-5.37-3.92-5.37s-3.68,1.36-3.68,4.61c0,3.42,1.83,5.37,3.92,5.37s3.68-1.36,3.68-4.61Z"/>
      <path class="cls-2" d="M144.4,58.29v-1.1l1.31-.32v-14.97l-1.45-.41v-1.02c1.42-.23,2.12-.7,2.76-1.65l1.02.17v17.87l1.31.32v1.1h-4.95Z"/>
      <path class="cls-2" d="M150.7,58.29v-1.1l1.31-.32v-14.97l-1.45-.41v-1.02c1.42-.23,2.12-.7,2.76-1.65l1.02.17v17.87l1.31.32v1.1h-4.95Z"/>
      <path class="cls-2" d="M159.12,52.66c.12,2.23,1.6,4,3.63,4,1.77,0,2.99-.78,3.89-2.12l.61.38c-.49,2.23-2.38,3.8-5.19,3.8s-5.34-2.06-5.34-5.8c0-5.08,3.05-7.25,5.86-7.25,2.64,0,4.84,1.57,4.84,5.28l-.46.7-7.83,1.02h0ZM159.18,51.15l5.66-.75c0-2.29-1.16-3.25-2.38-3.25-2.18,0-3.19,1.83-3.28,4Z"/>
      <path class="cls-2" d="M170.8,58.93c-.84-.35-1.33-1.1-1.33-1.71,0-1.13,1.02-1.83,2.15-2.61-1.57-.67-2.76-2.09-2.76-4.21,0-3.02,2.47-4.73,5.02-4.73,1.28,0,2.55.44,3.48,1.28l2.09-1.28c.78.29,1.07,1.25.73,2.12l-1.83.41c.32.61.49,1.31.49,2.12,0,3.02-2.47,4.73-5.02,4.73-.35,0-.73,0-1.07-.09-.67.52-.99.87-.99,1.28,0,.35.23.61.99.73l3.86.55c2.32.32,3.6,1.31,3.6,2.99,0,2.38-2.32,4.61-6.73,4.61-2.52,0-5.05-.84-5.05-3.13,0-1.39,1.13-2.23,2.38-3.05h0ZM172.05,59.19c-1.07.84-1.54,1.45-1.54,2.2,0,1.36,1.13,2.12,3.16,2.12,2.7,0,3.89-1.22,3.89-2.2,0-.84-.41-1.39-1.86-1.6l-3.65-.52h0ZM174.05,53.56c1.28,0,2.44-.87,2.44-2.99,0-2.47-1.33-3.42-2.84-3.42-1.28,0-2.44.87-2.44,2.99,0,2.47,1.33,3.42,2.84,3.42Z"/>
      <path class="cls-2" d="M183.22,52.66c.12,2.23,1.6,4,3.63,4,1.77,0,2.99-.78,3.89-2.12l.61.38c-.49,2.23-2.38,3.8-5.19,3.8s-5.34-2.06-5.34-5.8c0-5.08,3.05-7.25,5.86-7.25,2.64,0,4.84,1.57,4.84,5.28l-.46.7-7.83,1.02h0ZM183.28,51.15l5.66-.75c0-2.29-1.16-3.25-2.38-3.25-2.18,0-3.19,1.83-3.28,4Z"/>
      <path class="cls-2" d="M210.19,52.05c0,3.97-3.02,6.67-6.38,6.67s-6.09-2.47-6.09-6.38,3.02-6.67,6.38-6.67,6.09,2.47,6.09,6.38ZM207.75,52.58c0-3.42-1.83-5.37-3.92-5.37s-3.68,1.36-3.68,4.61c0,3.42,1.83,5.37,3.92,5.37s3.68-1.36,3.68-4.61Z"/>
      <path class="cls-2" d="M220.47,40.45c0,.96-.81,1.45-1.62,1.45-.09-.67-.61-1.51-1.62-1.51-.93,0-2.09.7-2.09,2.96v2.76h3.19v1.45h-3.19v9.28l1.89.35v1.1h-5.51v-1.1l1.31-.32v-9.31h-1.89v-1.1l1.89-.35v-1.48c0-3.66,2.32-5.92,5.08-5.92,1.25,0,2.58.55,2.58,1.74h-.02Z"/>
      <path class="cls-2" d="M224.82,58.29l-1.07-5.05,1.36-.49c.84,1.86,2.49,4.21,5.51,4.21,1.89,0,3.8-1.04,3.8-3.48,0-4.64-9.83-3.66-9.83-9.54,0-3.48,2.67-5.22,5.74-5.22,2.06,0,3.22.9,3.6,1.36l.35-.93h1.16l1.16,4.55-1.36.49c-.81-1.77-2.49-3.71-4.93-3.71-2.12,0-3.1,1.25-3.1,2.81,0,4.21,9.83,3.13,9.83,9.51,0,4.29-3.65,5.92-6.56,5.92-1.68,0-3.02-.55-4.18-1.33l-.35.9s-1.13,0-1.13,0Z"/>
      <path class="cls-2" d="M238.45,64.67v-1.1l1.16-.29v-14.71l-1.45-.41v-1.02c1.42-.23,2.12-.7,2.76-1.65l1.02.17-.15,2.09c.99-1.22,2.55-2.09,4.35-2.09,2.87,0,5.28,2.06,5.28,5.8,0,5.1-3.54,7.25-6.41,7.25-1.45,0-2.41-.41-3.07-.9v5.4l1.45.35v1.1h-4.94ZM241.93,49.24v6.88c.32.35,1.33.99,2.78.99,2.06,0,4.26-1.36,4.26-5.05,0-2.58-1.51-4.32-3.74-4.32-1.28,0-2.49.64-3.31,1.51h0Z"/>
      <path class="cls-2" d="M265.35,52.05c0,3.97-3.02,6.67-6.38,6.67s-6.09-2.47-6.09-6.38,3.02-6.67,6.38-6.67,6.09,2.47,6.09,6.38ZM262.92,52.58c0-3.42-1.83-5.37-3.92-5.37s-3.68,1.36-3.68,4.61c0,3.42,1.83,5.37,3.92,5.37s3.68-1.36,3.68-4.61Z"/>
      <path class="cls-2" d="M273.76,48.89c-.12-.44-.58-.87-1.16-.87-.9,0-1.83.78-2.44,1.54v7.28l1.45.35v1.1h-4.93v-1.1l1.16-.29v-8.32l-1.45-.41v-1.02c1.42-.23,2.12-.7,2.76-1.65l1.02.17-.15,2.61c.67-1.16,1.77-2.61,3.51-2.61.84,0,1.74.52,1.74,1.6,0,1.02-.75,1.62-1.51,1.62Z"/>
      <path class="cls-2" d="M277.88,56.14v-8.59h-1.89v-1.1c1.6-.29,2.64-1.74,3.19-3.31l1.02.17v2.78h3.19v1.45h-3.19v8.09c0,.9.41,1.39,1.16,1.39.55,0,1.07-.35,1.36-.7l.61.46c-.32.93-1.36,1.91-2.76,1.91-1.54,0-2.7-.9-2.7-2.58v.03Z"/>
    </g>
    <path class="cls-1" d="M28.91,19.12h14.94v-10.89c-.25-.24-8.35-8.01-8.58-8.23H8.3C8.07.23.24,7.99,0,8.23v19.97c.23.23,7.73,7.82,7.97,8.06h20.95v11.58h-13.84v-6.6H.01v10.89c.24.24,8.07,8,8.3,8.23h26.97c.23-.22,8.33-8,8.58-8.24v-19.97c-.23-.24-7.73-7.83-7.97-8.06H15.07v-11.58h13.84v6.6h0Z"/>
  </g>
</svg>